<svg id="visual" viewBox="0 0 960 540" width="960" height="540" xmlns="http://www.w3.org/2000/svg" xmlns:xlink="http://www.w3.org/1999/xlink" version="1.1"><rect x="0" y="0" width="960" height="540" fill="#fff9db"></rect><g transform="translate(852.8323461302889 -19.07245769462739)"><path d="M125.7 -240C162.3 -196.5 191.1 -161.7 258.9 -123.2C326.6 -84.7 433.3 -42.3 459.2 14.9C485 72.2 430 144.3 375.7 206.3C321.5 268.2 268 319.8 205.5 363.4C143 407 71.5 442.5 4.9 434C-61.7 425.5 -123.3 373 -152.6 310.2C-181.8 247.4 -178.6 174.3 -183.8 120.9C-188.9 67.5 -202.5 33.8 -216.5 -8.1C-230.6 -50 -245.2 -100 -250 -170.6C-254.7 -241.2 -249.6 -332.3 -206.3 -372C-163 -411.7 -81.5 -399.8 -18.5 -367.8C44.5 -335.7 89 -283.5 125.7 -240" fill="#001FB0"></path></g></svg>