<svg id="visual" viewBox="0 0 960 540" width="960" height="540" xmlns="http://www.w3.org/2000/svg" xmlns:xlink="http://www.w3.org/1999/xlink" version="1.1"><path d="M0 167L13.3 163.5C26.7 160 53.3 153 80 157.2C106.7 161.3 133.3 176.7 160 182.8C186.7 189 213.3 186 240 162C266.7 138 293.3 93 320 77.3C346.7 61.7 373.3 75.3 400 93.2C426.7 111 453.3 133 480 130.2C506.7 127.3 533.3 99.7 560 84.5C586.7 69.3 613.3 66.7 640 92.2C666.7 117.7 693.3 171.3 720 187.5C746.7 203.7 773.3 182.3 800 153C826.7 123.7 853.3 86.3 880 94.7C906.7 103 933.3 157 946.7 184L960 211" fill="none" stroke="#fcc419" stroke-width="42" stroke-linecap="round" stroke-linejoin="miter"></path></svg>