<svg id="visual" viewBox="0 0 900 900" width="900" height="900" xmlns="http://www.w3.org/2000/svg" xmlns:xlink="http://www.w3.org/1999/xlink" version="1.1"><g stroke-width="1" stroke-linejoin="bevel"><path d="M435 414L483 342L424 340Z" fill="#0d2dcd" stroke="#0d2dcd"></path><path d="M435 414L547 409L483 342Z" fill="#001fb0" stroke="#001fb0"></path><path d="M424 340L344 375L435 414Z" fill="#1234dd" stroke="#1234dd"></path><path d="M506 495L556 416L547 409Z" fill="#0322b7" stroke="#0322b7"></path><path d="M553 256L441 228L483 342Z" fill="#0726bf" stroke="#0726bf"></path><path d="M441 228L416 261L483 342Z" fill="#1234dd" stroke="#1234dd"></path><path d="M483 342L416 261L424 340Z" fill="#1030d5" stroke="#1030d5"></path><path d="M424 340L416 261L344 375Z" fill="#1942fc" stroke="#1942fc"></path><path d="M424 510L506 495L435 414Z" fill="#183ef4" stroke="#183ef4"></path><path d="M435 414L506 495L547 409Z" fill="#1030d5" stroke="#1030d5"></path><path d="M338 461L424 510L435 414Z" fill="#163bec" stroke="#163bec"></path><path d="M344 375L338 461L435 414Z" fill="#1437e4" stroke="#1437e4"></path><path d="M553 256L483 342L568 268Z" fill="#1437e4" stroke="#1437e4"></path><path d="M568 268L483 342L547 409Z" fill="#0a29c6" stroke="#0a29c6"></path><path d="M631 341L568 268L547 409Z" fill="#001fb0" stroke="#001fb0"></path><path d="M441 228L398 210L416 261Z" fill="#1234dd" stroke="#1234dd"></path><path d="M416 261L261 318L344 375Z" fill="#0322b7" stroke="#0322b7"></path><path d="M440 194L398 210L441 228Z" fill="#0a29c6" stroke="#0a29c6"></path><path d="M519 569L556 520L506 495Z" fill="#1030d5" stroke="#1030d5"></path><path d="M506 495L556 520L556 416Z" fill="#0d2dcd" stroke="#0d2dcd"></path><path d="M556 416L631 341L547 409Z" fill="#0a29c6" stroke="#0a29c6"></path><path d="M563 223L440 194L441 228Z" fill="#1030d5" stroke="#1030d5"></path><path d="M633 469L631 341L556 416Z" fill="#183ef4" stroke="#183ef4"></path><path d="M347 560L412 554L424 510Z" fill="#163bec" stroke="#163bec"></path><path d="M424 510L476 571L506 495Z" fill="#0726bf" stroke="#0726bf"></path><path d="M568 268L563 223L553 256Z" fill="#0726bf" stroke="#0726bf"></path><path d="M553 256L563 223L441 228Z" fill="#0d2dcd" stroke="#0d2dcd"></path><path d="M678 268L563 223L568 268Z" fill="#0726bf" stroke="#0726bf"></path><path d="M256 371L273 429L344 375Z" fill="#0322b7" stroke="#0322b7"></path><path d="M344 375L273 429L338 461Z" fill="#0726bf" stroke="#0726bf"></path><path d="M338 461L347 560L424 510Z" fill="#0d2dcd" stroke="#0d2dcd"></path><path d="M631 341L635 329L568 268Z" fill="#0322b7" stroke="#0322b7"></path><path d="M261 318L256 371L344 375Z" fill="#0726bf" stroke="#0726bf"></path><path d="M412 554L476 571L424 510Z" fill="#1030d5" stroke="#1030d5"></path><path d="M339 201L261 318L416 261Z" fill="#1942fc" stroke="#1942fc"></path><path d="M556 520L633 469L556 416Z" fill="#1437e4" stroke="#1437e4"></path><path d="M631 341L658 314L635 329Z" fill="#0d2dcd" stroke="#0d2dcd"></path><path d="M476 571L519 569L506 495Z" fill="#0d2dcd" stroke="#0d2dcd"></path><path d="M556 520L678 546L633 469Z" fill="#1030d5" stroke="#1030d5"></path><path d="M321 143L339 201L359 111Z" fill="#1234dd" stroke="#1234dd"></path><path d="M398 210L339 201L416 261Z" fill="#1234dd" stroke="#1234dd"></path><path d="M701 444L658 314L631 341Z" fill="#183ef4" stroke="#183ef4"></path><path d="M635 329L658 314L568 268Z" fill="#1437e4" stroke="#1437e4"></path><path d="M279 509L347 560L338 461Z" fill="#0726bf" stroke="#0726bf"></path><path d="M434 659L506 638L476 571Z" fill="#0a29c6" stroke="#0a29c6"></path><path d="M235 476L279 509L273 429Z" fill="#183ef4" stroke="#183ef4"></path><path d="M273 429L279 509L338 461Z" fill="#163bec" stroke="#163bec"></path><path d="M203 378L235 476L273 429Z" fill="#0d2dcd" stroke="#0d2dcd"></path><path d="M203 378L273 429L256 371Z" fill="#0d2dcd" stroke="#0d2dcd"></path><path d="M565 104L523 139L593 117Z" fill="#1234dd" stroke="#1234dd"></path><path d="M563 223L523 139L440 194Z" fill="#001fb0" stroke="#001fb0"></path><path d="M359 111L339 201L398 210Z" fill="#0d2dcd" stroke="#0d2dcd"></path><path d="M761 297L678 268L658 314Z" fill="#001fb0" stroke="#001fb0"></path><path d="M658 314L678 268L568 268Z" fill="#1437e4" stroke="#1437e4"></path><path d="M209 268L203 378L261 318Z" fill="#0726bf" stroke="#0726bf"></path><path d="M261 318L203 378L256 371Z" fill="#001fb0" stroke="#001fb0"></path><path d="M678 546L701 444L633 469Z" fill="#183ef4" stroke="#183ef4"></path><path d="M633 469L701 444L631 341Z" fill="#1234dd" stroke="#1234dd"></path><path d="M339 201L209 268L261 318Z" fill="#1437e4" stroke="#1437e4"></path><path d="M359 111L398 210L440 194Z" fill="#1942fc" stroke="#1942fc"></path><path d="M339 201L205 257L209 268Z" fill="#0a29c6" stroke="#0a29c6"></path><path d="M434 659L476 571L412 554Z" fill="#1234dd" stroke="#1234dd"></path><path d="M476 571L506 638L519 569Z" fill="#1437e4" stroke="#1437e4"></path><path d="M645 588L678 546L556 520Z" fill="#001fb0" stroke="#001fb0"></path><path d="M232 556L279 509L235 476Z" fill="#1234dd" stroke="#1234dd"></path><path d="M232 556L261 568L279 509Z" fill="#001fb0" stroke="#001fb0"></path><path d="M279 509L261 568L347 560Z" fill="#0a29c6" stroke="#0a29c6"></path><path d="M346 643L434 659L412 554Z" fill="#1234dd" stroke="#1234dd"></path><path d="M240 136L205 257L339 201Z" fill="#0a29c6" stroke="#0a29c6"></path><path d="M209 268L151 344L203 378Z" fill="#0a29c6" stroke="#0a29c6"></path><path d="M442 68L359 111L440 194Z" fill="#0d2dcd" stroke="#0d2dcd"></path><path d="M645 588L556 520L619 609Z" fill="#183ef4" stroke="#183ef4"></path><path d="M565 104L521 97L523 139Z" fill="#1234dd" stroke="#1234dd"></path><path d="M523 139L442 68L440 194Z" fill="#1942fc" stroke="#1942fc"></path><path d="M346 643L412 554L347 560Z" fill="#1437e4" stroke="#1437e4"></path><path d="M170 522L232 556L235 476Z" fill="#1437e4" stroke="#1437e4"></path><path d="M261 568L346 643L347 560Z" fill="#163bec" stroke="#163bec"></path><path d="M619 609L556 520L519 569Z" fill="#163bec" stroke="#163bec"></path><path d="M506 638L619 609L519 569Z" fill="#1437e4" stroke="#1437e4"></path><path d="M561 697L619 609L506 638Z" fill="#1942fc" stroke="#1942fc"></path><path d="M295 673L346 643L261 568Z" fill="#1234dd" stroke="#1234dd"></path><path d="M593 117L523 139L563 223Z" fill="#0322b7" stroke="#0322b7"></path><path d="M719 160L593 117L563 223Z" fill="#1942fc" stroke="#1942fc"></path><path d="M162 283L151 344L209 268Z" fill="#1942fc" stroke="#1942fc"></path><path d="M203 378L152 454L235 476Z" fill="#001fb0" stroke="#001fb0"></path><path d="M205 257L162 283L209 268Z" fill="#1030d5" stroke="#1030d5"></path><path d="M120 247L162 283L205 257Z" fill="#1437e4" stroke="#1437e4"></path><path d="M456 0L442 68L516 0Z" fill="#1942fc" stroke="#1942fc"></path><path d="M521 97L442 68L523 139Z" fill="#001fb0" stroke="#001fb0"></path><path d="M750 545L756 421L701 444Z" fill="#0726bf" stroke="#0726bf"></path><path d="M701 444L756 421L658 314Z" fill="#1234dd" stroke="#1234dd"></path><path d="M151 344L152 454L203 378Z" fill="#183ef4" stroke="#183ef4"></path><path d="M786 375L761 297L658 314Z" fill="#183ef4" stroke="#183ef4"></path><path d="M678 268L719 160L563 223Z" fill="#163bec" stroke="#163bec"></path><path d="M309 59L240 136L321 143Z" fill="#0d2dcd" stroke="#0d2dcd"></path><path d="M321 143L240 136L339 201Z" fill="#183ef4" stroke="#183ef4"></path><path d="M309 59L321 143L359 111Z" fill="#1942fc" stroke="#1942fc"></path><path d="M152 454L170 522L235 476Z" fill="#0a29c6" stroke="#0a29c6"></path><path d="M232 556L208 603L261 568Z" fill="#0322b7" stroke="#0322b7"></path><path d="M442 68L356 67L359 111Z" fill="#0d2dcd" stroke="#0d2dcd"></path><path d="M811 363L786 375L827 432Z" fill="#0726bf" stroke="#0726bf"></path><path d="M756 421L786 375L658 314Z" fill="#0d2dcd" stroke="#0d2dcd"></path><path d="M170 522L208 603L232 556Z" fill="#001fb0" stroke="#001fb0"></path><path d="M208 603L295 673L261 568Z" fill="#0726bf" stroke="#0726bf"></path><path d="M346 643L376 711L434 659Z" fill="#0a29c6" stroke="#0a29c6"></path><path d="M446 720L561 697L506 638Z" fill="#0d2dcd" stroke="#0d2dcd"></path><path d="M667 649L718 589L645 588Z" fill="#001fb0" stroke="#001fb0"></path><path d="M645 588L718 589L678 546Z" fill="#001fb0" stroke="#001fb0"></path><path d="M446 720L506 638L434 659Z" fill="#0d2dcd" stroke="#0d2dcd"></path><path d="M722 128L719 160L788 179Z" fill="#001fb0" stroke="#001fb0"></path><path d="M785 184L719 160L678 268Z" fill="#0322b7" stroke="#0322b7"></path><path d="M593 117L644 65L565 104Z" fill="#1437e4" stroke="#1437e4"></path><path d="M667 649L645 588L619 609Z" fill="#001fb0" stroke="#001fb0"></path><path d="M678 546L750 545L701 444Z" fill="#1234dd" stroke="#1234dd"></path><path d="M718 589L750 545L678 546Z" fill="#1942fc" stroke="#1942fc"></path><path d="M343 0L309 59L356 67Z" fill="#1234dd" stroke="#1234dd"></path><path d="M356 67L309 59L359 111Z" fill="#163bec" stroke="#163bec"></path><path d="M295 673L376 711L346 643Z" fill="#1234dd" stroke="#1234dd"></path><path d="M376 711L446 720L434 659Z" fill="#183ef4" stroke="#183ef4"></path><path d="M162 283L106 347L151 344Z" fill="#163bec" stroke="#163bec"></path><path d="M151 344L106 347L152 454Z" fill="#1030d5" stroke="#1030d5"></path><path d="M152 454L99 466L170 522Z" fill="#1030d5" stroke="#1030d5"></path><path d="M120 247L106 347L162 283Z" fill="#1234dd" stroke="#1234dd"></path><path d="M603 720L667 649L619 609Z" fill="#163bec" stroke="#163bec"></path><path d="M309 59L222 110L240 136Z" fill="#183ef4" stroke="#183ef4"></path><path d="M141 106L120 247L205 257Z" fill="#1942fc" stroke="#1942fc"></path><path d="M141 106L205 257L240 136Z" fill="#183ef4" stroke="#183ef4"></path><path d="M827 432L786 375L756 421Z" fill="#1030d5" stroke="#1030d5"></path><path d="M786 375L811 363L761 297Z" fill="#001fb0" stroke="#001fb0"></path><path d="M722 128L644 65L593 117Z" fill="#1942fc" stroke="#1942fc"></path><path d="M516 0L442 68L521 97Z" fill="#1437e4" stroke="#1437e4"></path><path d="M442 68L456 0L356 67Z" fill="#163bec" stroke="#163bec"></path><path d="M141 106L113 244L120 247Z" fill="#163bec" stroke="#163bec"></path><path d="M120 247L66 279L106 347Z" fill="#0322b7" stroke="#0322b7"></path><path d="M719 160L722 128L593 117Z" fill="#1437e4" stroke="#1437e4"></path><path d="M785 184L678 268L761 297Z" fill="#1234dd" stroke="#1234dd"></path><path d="M106 347L99 466L152 454Z" fill="#1942fc" stroke="#1942fc"></path><path d="M170 522L160 611L208 603Z" fill="#1942fc" stroke="#1942fc"></path><path d="M516 0L521 97L565 104Z" fill="#001fb0" stroke="#001fb0"></path><path d="M40 562L160 611L170 522Z" fill="#183ef4" stroke="#183ef4"></path><path d="M208 603L212 690L295 673Z" fill="#183ef4" stroke="#183ef4"></path><path d="M295 673L321 745L376 711Z" fill="#1942fc" stroke="#1942fc"></path><path d="M596 795L603 720L561 697Z" fill="#0d2dcd" stroke="#0d2dcd"></path><path d="M561 697L603 720L619 609Z" fill="#001fb0" stroke="#001fb0"></path><path d="M608 0L516 0L565 104Z" fill="#183ef4" stroke="#183ef4"></path><path d="M750 545L827 432L756 421Z" fill="#1437e4" stroke="#1437e4"></path><path d="M788 179L785 184L829 268Z" fill="#1030d5" stroke="#1030d5"></path><path d="M829 268L785 184L761 297Z" fill="#183ef4" stroke="#183ef4"></path><path d="M722 128L724 98L644 65Z" fill="#1234dd" stroke="#1234dd"></path><path d="M644 65L608 0L565 104Z" fill="#183ef4" stroke="#183ef4"></path><path d="M817 86L724 98L722 128Z" fill="#0322b7" stroke="#0322b7"></path><path d="M832 291L761 297L811 363Z" fill="#183ef4" stroke="#183ef4"></path><path d="M785 184L788 179L719 160Z" fill="#1437e4" stroke="#1437e4"></path><path d="M900 390L832 291L811 363Z" fill="#0a29c6" stroke="#0a29c6"></path><path d="M456 0L343 0L356 67Z" fill="#1942fc" stroke="#1942fc"></path><path d="M309 59L191 0L222 110Z" fill="#001fb0" stroke="#001fb0"></path><path d="M832 291L829 268L761 297Z" fill="#1942fc" stroke="#1942fc"></path><path d="M212 690L321 745L295 673Z" fill="#1030d5" stroke="#1030d5"></path><path d="M376 711L408 825L446 720Z" fill="#1030d5" stroke="#1030d5"></path><path d="M446 720L511 787L561 697Z" fill="#0d2dcd" stroke="#0d2dcd"></path><path d="M160 611L212 690L208 603Z" fill="#001fb0" stroke="#001fb0"></path><path d="M113 244L66 279L120 247Z" fill="#163bec" stroke="#163bec"></path><path d="M106 347L29 480L99 466Z" fill="#183ef4" stroke="#183ef4"></path><path d="M0 217L66 279L113 244Z" fill="#0322b7" stroke="#0322b7"></path><path d="M343 0L304 0L309 59Z" fill="#1437e4" stroke="#1437e4"></path><path d="M222 110L141 106L240 136Z" fill="#0d2dcd" stroke="#0d2dcd"></path><path d="M673 0L608 0L644 65Z" fill="#0726bf" stroke="#0726bf"></path><path d="M123 69L141 106L222 110Z" fill="#1942fc" stroke="#1942fc"></path><path d="M632 792L750 665L667 649Z" fill="#0d2dcd" stroke="#0d2dcd"></path><path d="M667 649L750 665L718 589Z" fill="#0d2dcd" stroke="#0d2dcd"></path><path d="M718 589L835 559L750 545Z" fill="#1030d5" stroke="#1030d5"></path><path d="M750 545L835 559L827 432Z" fill="#0726bf" stroke="#0726bf"></path><path d="M408 825L511 787L446 720Z" fill="#1942fc" stroke="#1942fc"></path><path d="M603 720L632 792L667 649Z" fill="#1437e4" stroke="#1437e4"></path><path d="M96 669L188 704L160 611Z" fill="#1437e4" stroke="#1437e4"></path><path d="M160 611L188 704L212 690Z" fill="#0d2dcd" stroke="#0d2dcd"></path><path d="M212 690L190 757L321 745Z" fill="#1234dd" stroke="#1234dd"></path><path d="M750 665L835 559L718 589Z" fill="#0322b7" stroke="#0322b7"></path><path d="M827 432L900 390L811 363Z" fill="#0322b7" stroke="#0322b7"></path><path d="M722 0L673 0L724 98Z" fill="#001fb0" stroke="#001fb0"></path><path d="M724 98L673 0L644 65Z" fill="#183ef4" stroke="#183ef4"></path><path d="M0 341L29 480L106 347Z" fill="#163bec" stroke="#163bec"></path><path d="M99 466L40 562L170 522Z" fill="#1234dd" stroke="#1234dd"></path><path d="M511 787L596 795L561 697Z" fill="#1030d5" stroke="#1030d5"></path><path d="M750 665L854 568L835 559Z" fill="#163bec" stroke="#163bec"></path><path d="M835 559L900 486L827 432Z" fill="#0726bf" stroke="#0726bf"></path><path d="M900 486L900 390L827 432Z" fill="#0322b7" stroke="#0322b7"></path><path d="M832 291L900 277L829 268Z" fill="#163bec" stroke="#163bec"></path><path d="M829 268L900 205L788 179Z" fill="#1942fc" stroke="#1942fc"></path><path d="M178 0L123 69L222 110Z" fill="#1437e4" stroke="#1437e4"></path><path d="M141 106L66 142L113 244Z" fill="#001fb0" stroke="#001fb0"></path><path d="M123 69L66 142L141 106Z" fill="#183ef4" stroke="#183ef4"></path><path d="M0 329L0 341L106 347Z" fill="#1942fc" stroke="#1942fc"></path><path d="M29 480L40 562L99 466Z" fill="#0322b7" stroke="#0322b7"></path><path d="M0 329L106 347L66 279Z" fill="#183ef4" stroke="#183ef4"></path><path d="M29 480L0 536L40 562Z" fill="#1437e4" stroke="#1437e4"></path><path d="M304 863L408 825L321 745Z" fill="#183ef4" stroke="#183ef4"></path><path d="M321 745L408 825L376 711Z" fill="#163bec" stroke="#163bec"></path><path d="M511 787L569 839L596 795Z" fill="#1234dd" stroke="#1234dd"></path><path d="M0 217L0 329L66 279Z" fill="#1234dd" stroke="#1234dd"></path><path d="M596 795L632 792L603 720Z" fill="#1234dd" stroke="#1234dd"></path><path d="M900 607L900 544L854 568Z" fill="#1437e4" stroke="#1437e4"></path><path d="M619 845L632 792L596 795Z" fill="#001fb0" stroke="#001fb0"></path><path d="M304 0L191 0L309 59Z" fill="#1437e4" stroke="#1437e4"></path><path d="M900 390L900 277L832 291Z" fill="#001fb0" stroke="#001fb0"></path><path d="M817 86L722 0L724 98Z" fill="#1942fc" stroke="#1942fc"></path><path d="M817 86L722 128L788 179Z" fill="#0322b7" stroke="#0322b7"></path><path d="M900 544L900 486L835 559Z" fill="#183ef4" stroke="#183ef4"></path><path d="M40 562L96 669L160 611Z" fill="#1030d5" stroke="#1030d5"></path><path d="M188 704L190 757L212 690Z" fill="#183ef4" stroke="#183ef4"></path><path d="M191 0L178 0L222 110Z" fill="#1437e4" stroke="#1437e4"></path><path d="M900 188L817 86L788 179Z" fill="#1030d5" stroke="#1030d5"></path><path d="M111 716L190 757L188 704Z" fill="#1437e4" stroke="#1437e4"></path><path d="M0 341L0 493L29 480Z" fill="#0d2dcd" stroke="#0d2dcd"></path><path d="M40 562L0 611L96 669Z" fill="#183ef4" stroke="#183ef4"></path><path d="M900 277L900 205L829 268Z" fill="#001fb0" stroke="#001fb0"></path><path d="M0 158L66 142L0 93Z" fill="#1942fc" stroke="#1942fc"></path><path d="M0 158L0 217L66 142Z" fill="#001fb0" stroke="#001fb0"></path><path d="M66 142L0 217L113 244Z" fill="#1030d5" stroke="#1030d5"></path><path d="M900 607L854 568L900 652Z" fill="#1234dd" stroke="#1234dd"></path><path d="M854 568L900 544L835 559Z" fill="#001fb0" stroke="#001fb0"></path><path d="M454 854L569 839L511 787Z" fill="#0322b7" stroke="#0322b7"></path><path d="M408 825L454 854L511 787Z" fill="#1437e4" stroke="#1437e4"></path><path d="M470 900L454 854L396 900Z" fill="#1030d5" stroke="#1030d5"></path><path d="M0 493L0 536L29 480Z" fill="#001fb0" stroke="#001fb0"></path><path d="M96 669L111 716L188 704Z" fill="#1942fc" stroke="#1942fc"></path><path d="M95 743L111 716L96 669Z" fill="#1437e4" stroke="#1437e4"></path><path d="M900 205L900 188L788 179Z" fill="#183ef4" stroke="#183ef4"></path><path d="M669 845L792 727L632 792Z" fill="#1234dd" stroke="#1234dd"></path><path d="M632 792L792 727L750 665Z" fill="#0726bf" stroke="#0726bf"></path><path d="M569 839L619 845L596 795Z" fill="#163bec" stroke="#163bec"></path><path d="M629 900L619 845L569 839Z" fill="#1942fc" stroke="#1942fc"></path><path d="M43 47L66 142L123 69Z" fill="#1234dd" stroke="#1234dd"></path><path d="M840 707L854 568L750 665Z" fill="#0d2dcd" stroke="#0d2dcd"></path><path d="M0 536L0 611L40 562Z" fill="#1234dd" stroke="#1234dd"></path><path d="M857 715L840 707L792 727Z" fill="#0d2dcd" stroke="#0d2dcd"></path><path d="M792 727L840 707L750 665Z" fill="#0d2dcd" stroke="#0d2dcd"></path><path d="M259 869L321 745L190 757Z" fill="#1437e4" stroke="#1437e4"></path><path d="M259 869L304 863L321 745Z" fill="#1942fc" stroke="#1942fc"></path><path d="M704 863L669 845L651 900Z" fill="#183ef4" stroke="#183ef4"></path><path d="M0 709L95 743L96 669Z" fill="#0322b7" stroke="#0322b7"></path><path d="M111 716L95 743L190 757Z" fill="#001fb0" stroke="#001fb0"></path><path d="M491 900L569 839L454 854Z" fill="#1030d5" stroke="#1030d5"></path><path d="M619 845L669 845L632 792Z" fill="#001fb0" stroke="#001fb0"></path><path d="M178 0L86 0L123 69Z" fill="#1942fc" stroke="#1942fc"></path><path d="M86 0L43 47L123 69Z" fill="#183ef4" stroke="#183ef4"></path><path d="M817 86L823 0L722 0Z" fill="#1030d5" stroke="#1030d5"></path><path d="M900 61L823 0L817 86Z" fill="#1030d5" stroke="#1030d5"></path><path d="M396 900L454 854L408 825Z" fill="#1234dd" stroke="#1234dd"></path><path d="M840 707L900 652L854 568Z" fill="#1942fc" stroke="#1942fc"></path><path d="M470 900L491 900L454 854Z" fill="#0726bf" stroke="#0726bf"></path><path d="M840 707L857 715L900 652Z" fill="#0322b7" stroke="#0322b7"></path><path d="M811 830L857 715L792 727Z" fill="#0726bf" stroke="#0726bf"></path><path d="M332 900L396 900L408 825Z" fill="#0322b7" stroke="#0322b7"></path><path d="M95 743L160 816L190 757Z" fill="#1942fc" stroke="#1942fc"></path><path d="M304 863L332 900L408 825Z" fill="#001fb0" stroke="#001fb0"></path><path d="M160 816L259 869L190 757Z" fill="#1437e4" stroke="#1437e4"></path><path d="M0 0L0 93L43 47Z" fill="#001fb0" stroke="#001fb0"></path><path d="M43 47L0 93L66 142Z" fill="#1437e4" stroke="#1437e4"></path><path d="M259 869L332 900L304 863Z" fill="#1942fc" stroke="#1942fc"></path><path d="M900 188L900 61L817 86Z" fill="#0a29c6" stroke="#0a29c6"></path><path d="M651 900L669 845L619 845Z" fill="#163bec" stroke="#163bec"></path><path d="M669 845L704 863L792 727Z" fill="#0d2dcd" stroke="#0d2dcd"></path><path d="M491 900L629 900L569 839Z" fill="#1030d5" stroke="#1030d5"></path><path d="M900 807L900 709L857 715Z" fill="#1030d5" stroke="#1030d5"></path><path d="M857 715L900 709L900 652Z" fill="#001fb0" stroke="#001fb0"></path><path d="M629 900L651 900L619 845Z" fill="#001fb0" stroke="#001fb0"></path><path d="M95 743L37 861L160 816Z" fill="#001fb0" stroke="#001fb0"></path><path d="M0 611L0 709L96 669Z" fill="#0a29c6" stroke="#0a29c6"></path><path d="M160 816L218 900L259 869Z" fill="#0a29c6" stroke="#0a29c6"></path><path d="M259 869L218 900L332 900Z" fill="#0322b7" stroke="#0322b7"></path><path d="M161 900L218 900L160 816Z" fill="#163bec" stroke="#163bec"></path><path d="M718 900L811 830L704 863Z" fill="#1942fc" stroke="#1942fc"></path><path d="M704 863L811 830L792 727Z" fill="#1437e4" stroke="#1437e4"></path><path d="M900 61L900 0L823 0Z" fill="#0a29c6" stroke="#0a29c6"></path><path d="M86 0L0 0L43 47Z" fill="#1234dd" stroke="#1234dd"></path><path d="M651 900L718 900L704 863Z" fill="#1942fc" stroke="#1942fc"></path><path d="M0 709L0 755L95 743Z" fill="#183ef4" stroke="#183ef4"></path><path d="M52 900L161 900L160 816Z" fill="#001fb0" stroke="#001fb0"></path><path d="M900 900L900 807L811 830Z" fill="#0322b7" stroke="#0322b7"></path><path d="M811 830L900 807L857 715Z" fill="#0a29c6" stroke="#0a29c6"></path><path d="M0 755L37 861L95 743Z" fill="#1942fc" stroke="#1942fc"></path><path d="M718 900L822 900L811 830Z" fill="#0a29c6" stroke="#0a29c6"></path><path d="M37 861L52 900L160 816Z" fill="#001fb0" stroke="#001fb0"></path><path d="M0 755L0 859L37 861Z" fill="#0a29c6" stroke="#0a29c6"></path><path d="M37 861L0 900L52 900Z" fill="#163bec" stroke="#163bec"></path><path d="M822 900L900 900L811 830Z" fill="#1437e4" stroke="#1437e4"></path><path d="M0 859L0 900L37 861Z" fill="#0d2dcd" stroke="#0d2dcd"></path></g></svg>