<svg id="visual" viewBox="0 0 960 540" width="960" height="540" xmlns="http://www.w3.org/2000/svg" xmlns:xlink="http://www.w3.org/1999/xlink" version="1.1"><path d="M0 223L20 229.2C40 235.3 80 247.7 120 245.2C160 242.7 200 225.3 240 238.2C280 251 320 294 360 309.8C400 325.7 440 314.3 480 291.7C520 269 560 235 600 243.5C640 252 680 303 720 326.8C760 350.7 800 347.3 840 339.2C880 331 920 318 940 311.5L960 305L960 541L940 541C920 541 880 541 840 541C800 541 760 541 720 541C680 541 640 541 600 541C560 541 520 541 480 541C440 541 400 541 360 541C320 541 280 541 240 541C200 541 160 541 120 541C80 541 40 541 20 541L0 541Z" fill="#001FB0" stroke-linecap="round" stroke-linejoin="miter"></path></svg>